# xmcd CD database file
#
# Track frame offsets:
#	150
#	17353
#	33109
#	45017
#	59948
#	73294
#	87163
#	96417
#	105066
#	119919
#	134105
#	146154
#
# Disc length: 2079 seconds
#
# Revision: 0
# Processed by: cddbd v1.5.2PL0 Copyright (c) Steve Scherf et al.
# Submitted via: CDex 1.70beta2
#
DISCID=ab081d0c
DTITLE=CMHFt 80's - Country Music Hits from the 80's - D1
DYEAR=1900
DGENRE=Country
TTITLE0=Al Hirt and Ace Cannon - Always On My Mind
TTITLE1=Johnny Lee - Lookin' For Love
TTITLE2=Johnny Paycheck - Born Hell Raiser
TTITLE3=Lee Greenwood - Going Going Gone
TTITLE4=Mel McDaniel - Baby's Got Her Blue Jeans On
TTITLE5=T.Graham Brown - Hell And High Water
TTITLE6=David Heavener - Honky Tonk Tonight
TTITLE7=Moe Bandy - The Old Chisholm Trail
TTITLE8=Lee Greenwood - Dixie Road
TTITLE9=T. Graham Brown - Darlene
TTITLE10=Billy and Terry Smith - Alabama Getaway
TTITLE11=Tommy Cash and Johnny Cash - Guess Things Happen That Way
EXTD=
EXTT0=
EXTT1=
EXTT2=
EXTT3=
EXTT4=
EXTT5=
EXTT6=
EXTT7=
EXTT8=
EXTT9=
EXTT10=
EXTT11=
PLAYORDER=
